<?xml version="1.0" encoding="utf-8"?>
<!-- Generator: Adobe Illustrator 25.2.0, SVG Export Plug-In . SVG Version: 6.00 Build 0)  -->
<svg version="1.1" id="Layer_1" xmlns="http://www.w3.org/2000/svg" xmlns:xlink="http://www.w3.org/1999/xlink" x="0px" y="0px"
	 viewBox="0 0 2000 2000" style="enable-background:new 0 0 2000 2000;" xml:space="preserve">
<style type="text/css">
	.st0{fill:#343131;}
	.st1{fill:#DAFF01;}
	.st2{fill:#0A70DB;}
	.st3{fill:#FA6F40;}
</style>
<g>
	<g>
		<g>
			<path class="st0" d="M256.64,988.78l-0.61,7.28l2.63-3.64l59.84-62.47h25.27l-60.45,62.67l63.89,83.5h-24.87l-53.38-70.96
				l-12.33,11.93v59.04h-19.81V929.95h19.81V988.78z"/>
			<path class="st0" d="M508.3,1076.12l63.89-152.24h1.21l63.69,152.24h-22.44l-47.71-121.51l13.95-9.1l-53.37,130.61H508.3z
				 M545.7,1020.72h54.38l6.47,16.98h-66.52L545.7,1020.72z"/>
			<path class="st0" d="M1634.39,1076.12l63.89-152.24h1.21l63.69,152.24h-22.44l-47.71-121.51l13.95-9.1l-53.37,130.61H1634.39z
				 M1671.79,1020.72h54.38l6.47,16.98h-66.52L1671.79,1020.72z"/>
			<path class="st0" d="M814.1,1076.12V925.3h0.2l76.63,108.77l-8.29-1.62l76.42-107.15h0.4v150.82h-19.41V969.77l1.21,9.91
				l-55.19,78.04h-0.4l-56-78.04l3.44-9.1v105.54H814.1z"/>
			<polygon class="st1" points="1218.93,1076.11 1117.68,1076.11 1117.68,1057.31 1205.25,1057.31 			"/>
			<polygon class="st2" points="1188.41,993.62 1179.65,1012.43 1117.68,1012.43 1117.68,993.62 			"/>
			<polygon class="st3" points="1218.08,929.93 1209.31,948.74 1117.68,948.74 1117.68,929.93 			"/>
			<path class="st0" d="M1408.51,929.95c7.41,0,14.25,0.98,20.52,2.93c6.27,1.95,11.73,4.85,16.38,8.69
				c4.65,3.84,8.29,8.56,10.92,14.15c2.63,5.59,3.94,12.1,3.94,19.51c0,5.8-0.84,11.46-2.53,16.98c-1.69,5.53-4.48,10.55-8.39,15.06
				c-3.91,4.52-9,8.16-15.26,10.92c-6.27,2.76-13.99,4.14-23.15,4.14h-21.63v53.78h-19.61V929.95H1408.51z M1410.53,1003.54
				c5.79,0,10.62-0.88,14.46-2.63c3.84-1.75,6.84-4.01,9-6.77c2.15-2.76,3.7-5.76,4.65-9c0.94-3.24,1.42-6.27,1.42-9.1
				c0-2.96-0.51-6.03-1.52-9.2c-1.01-3.17-2.63-6.1-4.85-8.79c-2.23-2.69-5.12-4.92-8.69-6.67c-3.57-1.75-7.92-2.63-13.04-2.63
				h-22.64v54.79H1410.53z M1434.58,1014.66l38.21,61.46h-22.64l-38.82-60.86L1434.58,1014.66z"/>
		</g>
	</g>
</g>
</svg>
